PathFileType	4	(X/Y/Z)	/Users/itak/Documents/Research/Walk-IL/dataset/trc/00521_00183.trc
DataRate	CameraRate	NumFrames	NumMarkers	Units	OrigDataRate	OrigDataStartFrame	OrigNumFrames
100.000000	100.000000	4	53	mm	100.000000	310	497
Frame#	Time	RPSI			LPSI			L3			STRN			T10			C7			CLAV			RBAK			LBAK			LSHO			LUPA			LAEL			LAOL			LWTS			LWPS			LFRA			LIFD			LHPS			LHTS			RSHO			RUPA			RAEL			RAOL			RWTS			RWPS			RFRA			RIFD			RHTS			RHPS			RBHD			LFHD			RFHD			LBHD			LHIP			RHIP			RASI			LASI			LKNE			LTHI			LANK			LTIP			LTOE			LMT1			LMT5			LHEE			RKNE			RTHI			RANK			RTIP			RTOE			RMT1			RMT5			RHEE			
		X1	Y1	Z1	X2	Y2	Z2	X3	Y3	Z3	X4	Y4	Z4	X5	Y5	Z5	X6	Y6	Z6	X7	Y7	Z7	X8	Y8	Z8	X9	Y9	Z9	X10	Y10	Z10	X11	Y11	Z11	X12	Y12	Z12	X13	Y13	Z13	X14	Y14	Z14	X15	Y15	Z15	X16	Y16	Z16	X17	Y17	Z17	X18	Y18	Z18	X19	Y19	Z19	X20	Y20	Z20	X21	Y21	Z21	X22	Y22	Z22	X23	Y23	Z23	X24	Y24	Z24	X25	Y25	Z25	X26	Y26	Z26	X27	Y27	Z27	X28	Y28	Z28	X29	Y29	Z29	X30	Y30	Z30	X31	Y31	Z31	X32	Y32	Z32	X33	Y33	Z33	X34	Y34	Z34	X35	Y35	Z35	X36	Y36	Z36	X37	Y37	Z37	X38	Y38	Z38	X39	Y39	Z39	X40	Y40	Z40	X41	Y41	Z41	X42	Y42	Z42	X43	Y43	Z43	X44	Y44	Z44	X45	Y45	Z45	X46	Y46	Z46	X47	Y47	Z47	X48	Y48	Z48	X49	Y49	Z49	X50	Y50	Z50	X51	Y51	Z51	X52	Y52	Z52	X53	Y53	Z53	

311	3.1	147.1313323974609	938.5325927734375	232.3918609619141	262.2039489746094	935.714111328125	186.4217224121094	210.1571807861328	1014.312805175781	203.9320831298828	290.1343688964844	1184.437377929688	406.4556884765625	200.9911193847656	1118.444580078125	194.4035034179688	209.8014984130859	1349.6328125	234.3675537109375	272.9620361328125	1279.42724609375	374.1000061035156	115.7434234619141	1225.801391601562	222.0270385742188	280.8447570800781	1296.06591796875	176.6732177734375	382.7248840332031	1349.9658203125	232.7454833984375	441.0482177734375	1226.351806640625	201.8613128662109	485.9315795898438	1019.747314453125	215.1606750488281	395.3838500976562	1000.779113769531	178.4425659179688	502.6041870117188	845.6612548828125	328.1336975097656	516.8839111328125	802.028564453125	245.5941772460938	502.9260559082031	939.6973876953125	237.7900695800781	516.4142456054688	690.7213134765625	351.5650634765625	529.4503784179688	753.3588256835938	275.5316467285156	533.9771728515625	772.5955810546875	338.1937561035156	93.85047912597656	1342.788696289062	339.2108459472656	35.77095794677734	1275.79736328125	339.5367126464844	-7.871377468109131	1010.638305664062	329.4844665527344	21.63148880004883	996.5003051757812	271.0848693847656	32.17193222045898	801.5276489257812	410.09130859375	-21.24063682556152	782.353515625	339.1012878417969	-14.94101238250732	956.0811157226562	329.600830078125	25.4099292755127	642.19189453125	401.0834350585938	8.770262718200684	708.9249267578125	420.2840270996094	-19.50091934204102	711.0193481445312	356.3731384277344	139.4298400878906	1498.985229492188	317.7258911132812	304.6327514648438	1563.948120117188	409.211181640625	183.1624755859375	1543.263671875	441.6303100585938	287.7232360839844	1523.30322265625	263.9625549316406	422.1839599609375	870.4476928710938	244.2944030761719	75.93694305419922	844.236083984375	384.0863342285156	171.0991973876953	900.6842041015625	446.9343872070312	393.2991027832031	915.642822265625	351.1322937011719	471.5908508300781	473.9209899902344	386.9110717773438	464.1231689453125	627.8523559570312	341.2152709960938	359.878173828125	191.0076293945312	74.46250152587891	447.0499572753906	368.3721008300781	296.7300415039062	380.4665222167969	51.13145065307617	214.9154510498047	322.7920227050781	96.86252593994141	186.7958068847656	408.4036254882812	109.9162826538086	127.0214767456055	288.7885437011719	215.4003295898438	77.33255004882812	195.5215454101562	465.864013671875	417.4647521972656	108.2809829711914	716.6547241210938	420.4977722167969	249.1287536621094	46.74846267700195	327.4478759765625	236.0371246337891	322.2419738769531	417.1140441894531	341.62646484375	38.2108039855957	511.4883728027344	362.1828308105469	41.5743408203125	437.1774597167969	264.5543212890625	41.36595153808594	438.7725524902344	283.1733093261719	38.13212966918945	264.6627502441406	
312	3.11	151.3390960693359	939.2661743164062	238.3096771240234	267.0425720214844	936.5523071289062	193.6596069335938	214.1268920898438	1015.235168457031	210.6225128173828	292.3013000488281	1185.734497070312	413.7782592773438	204.4800872802734	1119.367065429688	201.6334838867188	213.1690673828125	1350.628173828125	240.9087677001953	275.4549255371094	1280.652465820312	381.0857849121094	118.9644088745117	1226.735595703125	228.5503845214844	284.4205017089844	1296.860595703125	183.7533721923828	386.0732116699219	1350.71533203125	240.1900177001953	444.20654296875	1227.0830078125	209.2420349121094	488.7164306640625	1020.423217773438	222.3672943115234	398.2844543457031	1001.677001953125	185.3097534179688	504.5557861328125	846.3538818359375	335.4674987792969	519.68701171875	802.835205078125	253.0207824707031	505.5433654785156	940.4131469726562	245.0950775146484	519.1105346679688	691.5277099609375	358.9980773925781	532.3246459960938	754.2711181640625	283.022705078125	536.300537109375	773.5270385742188	345.7315368652344	96.73027038574219	1344.226806640625	345.2179260253906	38.5255012512207	1277.2490234375	345.7296752929688	-4.656003952026367	1011.738098144531	338.5374450683594	24.11128044128418	997.1336669921875	279.9235229492188	37.36713409423828	804.4879760742188	422.1234130859375	-17.04452323913574	783.6953735351562	352.3786926269531	-11.55617809295654	957.1515502929688	339.5528564453125	30.7572021484375	644.9415283203125	416.8818054199219	14.29915237426758	712.0974731445312	434.7053833007812	-14.74911975860596	712.7479858398438	371.1207885742188	142.8977661132812	1500.649536132812	324.2659912109375	308.2705383300781	1564.462768554688	416.3829345703125	186.5800018310547	1544.337524414062	448.4213562011719	291.5389404296875	1524.287231445312	270.9794921875	425.4059753417969	872.0144653320312	254.0076599121094	78.27954864501953	844.8071899414062	388.8990173339844	172.1479644775391	901.4278564453125	453.2219848632812	395.6149291992188	917.3192138671875	360.2861022949219	475.87060546875	478.2971801757812	403.5209655761719	468.6773376464844	631.526123046875	355.4054870605469	374.1229248046875	183.830322265625	97.96038818359375	454.291015625	369.7538757324219	315.3908386230469	399.6783752441406	50.33689117431641	243.854248046875	340.3367309570312	92.48313140869141	213.6153564453125	425.7218017578125	107.1574478149414	154.0800170898438	302.0417175292969	205.1763458251953	99.0535888671875	195.9286193847656	465.56640625	419.7911071777344	109.9500885009766	716.9974365234375	424.9334716796875	249.1684875488281	46.81132888793945	327.5038146972656	236.1971435546875	321.9818420410156	418.3924255371094	341.5946350097656	38.1375732421875	511.5415954589844	362.1143188476562	41.55598068237305	437.2343444824219	264.4863891601562	41.27054214477539	438.8629760742188	283.1132507324219	38.34207153320312	264.7689819335938	
313	3.12	155.5415344238281	939.8634643554688	244.1971588134766	271.9006958007812	937.2548828125	200.8516693115234	218.0471343994141	1016.003723144531	217.3015289306641	294.427001953125	1186.856567382812	421.0610046386719	207.9835968017578	1120.1630859375	208.7358856201172	216.5084991455078	1351.481079101562	247.4170989990234	277.8858642578125	1281.696411132812	388.044189453125	122.1634140014648	1227.482055664062	235.0883026123047	287.9688720703125	1297.520751953125	190.8211212158203	389.3923950195312	1351.329467773438	247.6358642578125	447.2893676757812	1227.658813476562	216.6077728271484	491.4676208496094	1020.953430175781	229.4414215087891	401.1685485839844	1002.458984375	192.0530395507812	506.6716003417969	846.9295654296875	342.6021423339844	522.4304809570312	803.481201171875	260.2425231933594	508.1521606445312	940.9619750976562	252.2182464599609	522.0147094726562	692.2387084960938	366.2672119140625	535.2048950195312	755.0360107421875	290.3067016601562	538.8076782226562	774.3589477539062	353.030029296875	99.54884338378906	1345.46044921875	351.1602783203125	41.21919250488281	1278.49072265625	351.8323059082031	-1.527594804763794	1012.659423828125	347.5068969726562	26.54526138305664	997.5989990234375	288.7154541015625	42.45162200927734	807.4253540039062	434.1204528808594	-12.89868831634521	784.9772338867188	365.6656494140625	-8.261351585388184	958.0792236328125	349.417724609375	36.17175674438477	647.73193359375	432.6981811523438	19.77792358398438	715.299072265625	449.1260986328125	-10.02053642272949	714.4563598632812	385.8896789550781	146.286865234375	1502.167114257812	330.8068237304688	311.8899841308594	1564.86865234375	423.4548950195312	189.9821472167969	1545.335327148438	455.1319274902344	295.3006591796875	1525.055419921875	277.9354248046875	428.4539184570312	873.4570922851562	263.5657043457031	80.70649719238281	845.2122802734375	393.5828552246094	173.1352691650391	902.0055541992188	459.4041137695312	397.9432373046875	918.8042602539062	369.4022521972656	479.7146301269531	482.4799194335938	419.5361328125	472.9651184082031	634.9962768554688	369.3075256347656	388.2642211914062	176.0236053466797	122.1436004638672	461.1952209472656	370.8562622070312	333.7053527832031	418.7168579101562	49.54309844970703	273.3987121582031	357.8623962402344	87.90866851806641	241.2427062988281	442.7802124023438	104.1150817871094	181.6752624511719	315.2923583984375	194.1422729492188	121.6928100585938	196.3873138427734	465.2340087890625	422.0715942382812	111.5407867431641	717.2228393554688	429.1380920410156	249.2226257324219	46.8907585144043	327.5503540039062	236.4449310302734	321.7051086425781	419.6889953613281	341.5702209472656	38.06100845336914	511.59423828125	362.075927734375	41.51876831054688	437.2927551269531	264.4421997070312	41.19155120849609	438.9495849609375	283.0650024414062	38.53744506835938	264.9137268066406	
314	3.13	159.7488861083984	940.330322265625	250.0479583740234	276.7776184082031	937.836181640625	208.00537109375	221.9198913574219	1016.614074707031	224.0002593994141	296.5198059082031	1187.797485351562	428.2938537597656	211.5181274414062	1120.82177734375	215.7037658691406	219.8275146484375	1352.186401367188	253.8945770263672	280.26123046875	1282.552978515625	394.9700317382812	125.3633193969727	1228.045654296875	241.6047821044922	291.50146484375	1298.04345703125	197.8791656494141	392.6915283203125	1351.811401367188	255.0908355712891	450.3285217285156	1228.08740234375	223.9813385009766	494.1939697265625	1021.342590332031	236.4076385498047	404.0426025390625	1003.13720703125	198.6972961425781	508.9667663574219	847.3705444335938	349.5574340820312	525.0980834960938	803.9603881835938	267.2600708007812	510.75927734375	941.3448486328125	259.1776428222656	525.0847778320312	692.8206787109375	373.3490905761719	538.0692749023438	755.6376953125	297.3692626953125	541.4813842773438	775.0536499023438	360.0817565917969	102.3145294189453	1346.4765625	357.0316467285156	43.8629264831543	1279.505615234375	357.829833984375	1.519527673721313	1013.389892578125	356.3805847167969	28.95627975463867	997.8715209960938	297.4496459960938	47.40380859375	810.3224487304688	446.088623046875	-8.806173324584961	786.1971435546875	378.9473571777344	-5.04813814163208	958.845458984375	359.1773681640625	41.61763381958008	650.56201171875	448.4840393066406	25.19310569763184	718.5089111328125	463.5135498046875	-5.342467784881592	716.1400756835938	400.6557312011719	149.6083221435547	1503.5146484375	337.3523559570312	315.4837646484375	1565.161987304688	430.4440002441406	193.3754577636719	1546.237182617188	461.7567138671875	299.0102844238281	1525.606079101562	284.8429260253906	431.3544006347656	874.755126953125	272.995361328125	83.20858764648438	845.4210815429688	398.11767578125	174.0729827880859	902.411376953125	465.4818115234375	400.2640991210938	920.094482421875	378.4927673339844	483.1556701660156	486.3993225097656	434.915283203125	476.9874572753906	638.1942138671875	382.8524169921875	402.2823486328125	167.66455078125	147.0139923095703	467.8040161132812	371.6865234375	351.6496276855469	437.4058227539062	48.88042831420898	303.5464782714844	375.176025390625	83.25736236572266	269.6351623535156	459.4708862304688	100.8220748901367	209.8048706054688	328.5262756347656	182.4628601074219	145.2813720703125	196.9318389892578	464.8724670410156	424.3388366699219	113.0584945678711	717.3163452148438	433.095703125	249.3018951416016	46.98785018920898	327.5844421386719	236.8063354492188	321.4074401855469	421.0205688476562	341.5567932128906	37.98248672485352	511.6454467773438	362.0746154785156	41.45752334594727	437.3508911132812	264.4263000488281	41.13449478149414	439.0268859863281	283.038330078125	38.72430419921875	265.0863342285156	
